<?xml version="1.0" encoding="iso-8859-1"?>
<!-- Generator: Adobe Illustrator 19.0.0, SVG Export Plug-In . SVG Version: 6.00 Build 0)  -->
<svg version="1.1" id="Capa_1" xmlns="http://www.w3.org/2000/svg" xmlns:xlink="http://www.w3.org/1999/xlink" x="0px" y="0px"
	 viewBox="0 0 512 512" style="enable-background:new 0 0 512 512;" xml:space="preserve">
<circle style="fill:#0684FF;" cx="256" cy="256" r="110.933"/>
<g>
	<polygon style="fill:#FFCD3A;" points="93.867,8.533 8.533,8.533 8.533,76.8 51.2,76.8 93.867,76.8 	"/>
	<polygon style="fill:#FFCD3A;" points="503.467,8.533 418.133,8.533 418.133,76.8 460.8,76.8 503.467,76.8 	"/>
	<polygon style="fill:#FFCD3A;" points="93.867,401.067 8.533,401.067 8.533,469.333 51.2,469.333 93.867,469.333 	"/>
	<polygon style="fill:#FFCD3A;" points="503.467,401.067 418.133,401.067 418.133,469.333 460.8,469.333 503.467,469.333 	"/>
</g>
<path d="M375.467,256c0-65.98-53.487-119.467-119.467-119.467S136.533,190.02,136.533,256S190.02,375.467,256,375.467
	C321.954,375.398,375.398,321.954,375.467,256z M256,358.4c-12.305,0-25.429-15.684-33.835-41.557
	c10.948-0.708,22.281-1.109,33.835-1.109c11.554,0,22.886,0.401,33.835,1.109C281.429,342.716,268.305,358.4,256,358.4z
	 M256,298.667c-13.065,0-25.924,0.461-38.272,1.357c-2.406-11.691-3.814-23.561-4.198-35.49h84.941
	c-0.384,11.93-1.792,23.799-4.198,35.49C281.924,299.128,269.065,298.667,256,298.667z M256,153.6
	c12.305,0,25.429,15.684,33.835,41.557c-10.948,0.708-22.281,1.109-33.835,1.109c-11.554,0-22.886-0.401-33.835-1.109
	C230.571,169.284,243.695,153.6,256,153.6z M256,213.333c13.065,0,25.924-0.461,38.272-1.357c2.406,11.691,3.814,23.561,4.198,35.49
	H213.53c0.384-11.93,1.792-23.799,4.198-35.49C230.076,212.873,242.935,213.333,256,213.333z M315.529,247.467
	c-0.384-12.45-1.775-24.849-4.181-37.069c11.947-1.306,23.211-3.046,33.451-5.18c7.45,12.945,11.947,27.366,13.167,42.249H315.529z
	 M196.471,247.467h-42.436c1.22-14.882,5.717-29.303,13.167-42.249c10.24,2.133,21.487,3.874,33.451,5.18
	C198.246,222.618,196.855,235.017,196.471,247.467z M196.471,264.533c0.384,12.45,1.775,24.849,4.181,37.069
	c-11.947,1.306-23.211,3.046-33.451,5.18c-7.45-12.945-11.947-27.366-13.167-42.249H196.471z M315.529,264.533h42.436
	c-1.22,14.882-5.717,29.303-13.167,42.249c-10.24-2.133-21.487-3.874-33.451-5.18C313.754,289.382,315.145,276.983,315.529,264.533z
	 M334.097,189.926c-8.414,1.519-17.442,2.79-26.948,3.78c-3.362-11.827-8.457-23.091-15.104-33.434
	C308.352,166.426,322.825,176.631,334.097,189.926z M219.955,160.273c-6.647,10.342-11.742,21.606-15.104,33.434
	c-9.506-0.99-18.534-2.261-26.948-3.78C189.175,176.631,203.648,166.426,219.955,160.273z M177.903,322.074
	c8.414-1.519,17.442-2.79,26.948-3.78c3.362,11.827,8.457,23.091,15.104,33.434C203.648,345.574,189.175,335.369,177.903,322.074z
	 M292.045,351.727c6.647-10.342,11.742-21.606,15.104-33.434c9.506,0.99,18.534,2.261,26.948,3.78
	C322.825,335.369,308.352,345.574,292.045,351.727z"/>
<path d="M8.533,85.333h34.133V102.4H8.533v17.067h85.333V102.4H59.733V85.333h34.133c4.71,0,8.533-3.823,8.533-8.533V8.533
	C102.4,3.823,98.577,0,93.867,0H8.533C3.823,0,0,3.823,0,8.533V76.8C0,81.51,3.823,85.333,8.533,85.333z M17.067,17.067h68.267v51.2
	H17.067V17.067z"/>
<path d="M503.467,0h-85.333c-4.71,0-8.533,3.823-8.533,8.533V76.8c0,4.71,3.823,8.533,8.533,8.533h34.133V102.4h-34.133v17.067
	h85.333V102.4h-34.133V85.333h34.133c4.71,0,8.533-3.823,8.533-8.533V8.533C512,3.823,508.177,0,503.467,0z M494.933,68.267h-68.267
	v-51.2h68.267V68.267z"/>
<path d="M102.4,494.933H59.733v-17.067h34.133c4.71,0,8.533-3.823,8.533-8.533v-68.267c0-4.71-3.823-8.533-8.533-8.533H8.533
	c-4.71,0-8.533,3.823-8.533,8.533v68.267c0,4.71,3.823,8.533,8.533,8.533h34.133v17.067H0V512h102.4V494.933z M17.067,409.6h68.267
	v51.2H17.067V409.6z"/>
<path d="M503.467,392.533h-85.333c-4.71,0-8.533,3.823-8.533,8.533v68.267c0,4.71,3.823,8.533,8.533,8.533h34.133v17.067H409.6V512
	H512v-17.067h-42.667v-17.067h34.133c4.71,0,8.533-3.823,8.533-8.533v-68.267C512,396.356,508.177,392.533,503.467,392.533z
	 M494.933,460.8h-68.267v-51.2h68.267V460.8z"/>
<path d="M142.37,102.844l-25.6,8.533c-2.551,0.836-4.557,2.842-5.393,5.393l-8.533,25.6l16.213,5.393l4.173-12.501l24.371,24.371
	l12.066-12.066l-24.371-24.371l12.501-4.173L142.37,102.844z"/>
<path d="M395.23,111.377l-25.6-8.533l-5.393,16.213l12.501,4.173l-24.371,24.371l12.066,12.066l24.371-24.371l4.173,12.501
	l16.213-5.393l-8.533-25.6C399.821,114.227,397.807,112.213,395.23,111.377z"/>
<path d="M147.567,352.367l-24.371,24.371l-4.173-12.501l-16.213,5.393l8.533,25.6c0.836,2.551,2.842,4.557,5.393,5.393l25.6,8.533
	l5.393-16.213l-12.501-4.173l24.371-24.371L147.567,352.367z"/>
<path d="M369.63,409.156l25.6-8.533c2.551-0.836,4.557-2.842,5.393-5.393l8.533-25.6l-16.213-5.393l-4.173,12.501l-24.371-24.371
	l-12.066,12.066l24.371,24.371l-12.501,4.173L369.63,409.156z"/>
<rect x="247.467" y="34.133" width="17.067" height="68.267"/>
<rect x="247.467" width="17.067" height="17.067"/>
<rect x="286.599" y="102.398" transform="matrix(-0.7071 0.7071 -0.7071 -0.7071 588.2935 -21.8158)" width="24.132" height="17.067"/>
<rect x="204.798" y="98.866" transform="matrix(-0.7071 0.7071 -0.7071 -0.7071 442.6204 38.5239)" width="17.067" height="24.132"/>
<rect x="247.467" y="409.6" width="17.067" height="68.267"/>
<rect x="247.467" y="494.933" width="17.067" height="17.067"/>
<rect x="290.127" y="389.002" transform="matrix(-0.7071 0.7071 -0.7071 -0.7071 793.4424 473.4821)" width="17.067" height="24.132"/>
<rect x="206.413" y="390.394" transform="matrix(-0.7071 0.7071 -0.7071 -0.7071 649.9023 528.6563)" width="18.099" height="17.067"/>
<rect x="409.6" y="247.467" width="68.267" height="17.067"/>
<rect x="494.933" y="247.467" width="17.067" height="17.067"/>
<rect x="389.002" y="204.798" transform="matrix(-0.7071 0.7071 -0.7071 -0.7071 835.5148 80.5817)" width="24.132" height="17.067"/>
<rect x="392.535" y="286.599" transform="matrix(-0.7071 0.7071 -0.7071 -0.7071 895.8546 226.2548)" width="17.067" height="24.132"/>
<rect x="34.133" y="247.467" width="68.267" height="17.067"/>
<rect y="247.467" width="17.067" height="17.067"/>
<rect x="102.398" y="201.269" transform="matrix(-0.7071 0.7071 -0.7071 -0.7071 340.2228 285.7452)" width="17.067" height="24.132"/>
<rect x="98.857" y="290.127" transform="matrix(-0.7071 0.7071 -0.7071 -0.7071 400.542 431.4098)" width="24.132" height="17.067"/>
<g>
</g>
<g>
</g>
<g>
</g>
<g>
</g>
<g>
</g>
<g>
</g>
<g>
</g>
<g>
</g>
<g>
</g>
<g>
</g>
<g>
</g>
<g>
</g>
<g>
</g>
<g>
</g>
<g>
</g>
</svg>
