<svg id="Capa_1" enable-background="new 0 0 512 512" height="512" viewBox="0 0 512 512" width="512" xmlns="http://www.w3.org/2000/svg"><g><g><path d="m478.916 78.848h-445.831v305.095c0 10.278 8.332 18.611 18.611 18.611h408.61c10.278 0 18.611-8.332 18.611-18.611v-305.095z" fill="#ffe07d"/><path d="m33.085 78.848v38.649h406.103c10.173 0 18.419 8.246 18.419 18.419v266.638h2.699c10.278 0 18.611-8.332 18.611-18.611v-305.095z" fill="#ffd064"/></g><path d="m491.049 98.848h-470.097c-7.429 0-13.451-6.022-13.451-13.451v-22.544c0-7.429 6.022-13.451 13.451-13.451h470.097c7.429 0 13.451 6.022 13.451 13.451v22.544c0 7.429-6.022 13.451-13.451 13.451z" fill="#e27d47"/><path d="m491.049 49.402h-21.31c7.429 0 13.451 6.022 13.451 13.451v22.544c0 7.429-6.022 13.451-13.451 13.451h21.31c7.429 0 13.451-6.022 13.451-13.451v-22.544c0-7.429-6.022-13.451-13.451-13.451z" fill="#dd544f"/><g><path d="m115.135 374.149-11.983 11.981-18.015 18.012 27.586 27.591 27.688 27.693c4.24 4.24 11.114 4.241 15.355.001l2.659-2.659c4.24-4.24 4.241-11.114.001-15.355l-18.964-18.968c-1.898-1.898-2.526-4.722-1.613-7.246l3.375-9.325c.913-2.524.285-5.348-1.613-7.246z" fill="#365e7d"/><path d="m85.137 404.142 17.341 17.345 29.999-29.993-17.342-17.345-11.983 11.981z" fill="#2b4d66"/><path d="m135.983 365.902 81.094-33.434-110.138-110.158-33.449 81.088-4.23 18.208 44.649 44.658z" fill="#e27d47"/><path d="m135.983 365.902-50.085 50.076c-4.691 4.69-12.295 4.689-16.985-.002l-45.509-45.518c-4.69-4.691-4.689-12.295.002-16.985l50.085-50.076z" fill="#f6f1f1"/><path d="m92.386 295.572h14.47v88.386h-14.47z" fill="#dae4ea" transform="matrix(.707 -.707 .707 .707 -211.057 169.929)"/><path d="m100.888 236.979 101.519 101.537 14.67-6.048-110.138-110.158z" fill="#dd544f"/><path d="m49.126 424.733 14.273-14.271-34.482-34.488-14.273 14.271c-9.524 9.522-9.525 24.962-.003 34.485 9.522 9.523 24.962 9.525 34.485.003z" fill="#e27d47"/><path d="m33.451 374.097h14.887v48.769h-14.887z" fill="#dd544f" transform="matrix(.707 -.707 .707 .707 -269.768 145.601)"/><path d="m67.837 345.413-11.442 11.44c-4.198 4.197-11.003 4.196-15.2-.001l-10.582-10.584 26.643-26.639 10.582 10.584c4.197 4.198 4.197 11.003-.001 15.2z" fill="#e27d47"/><path d="m47.94 328.944 10.582 10.584c4.197 4.198 4.196 11.003-.001 15.2l9.317-9.315c4.198-4.197 4.198-11.002.001-15.2l-10.582-10.584z" fill="#dd544f"/></g><path d="m313.844 264.056h-115.688c-15.177 0-27.48-12.303-27.48-27.48v-7.046c0-15.177 12.303-27.48 27.48-27.48h115.688c15.177 0 27.48 12.303 27.48 27.48v7.046c0 15.177-12.303 27.48-27.48 27.48z" fill="#95d6a4"/><path d="m313.844 202.05h-21.696c15.177 0 27.48 12.303 27.48 27.48v7.046c0 15.177-12.303 27.48-27.48 27.48h21.696c15.177 0 27.48-12.303 27.48-27.48v-7.046c0-15.176-12.303-27.48-27.48-27.48z" fill="#78c2a4"/><g><path d="m198.156 271.556h115.688c19.288 0 34.979-15.691 34.979-34.98v-7.046c0-19.288-15.691-34.98-34.979-34.98h-115.688c-19.288 0-34.979 15.692-34.979 34.98v7.046c0 19.289 15.691 34.98 34.979 34.98zm-19.979-42.025c0-11.018 8.963-19.98 19.979-19.98h115.688c11.017 0 19.979 8.963 19.979 19.98v7.046c0 11.017-8.963 19.98-19.979 19.98h-115.688c-11.017 0-19.979-8.963-19.979-19.98z"/><path d="m230.304 240.553h51.393c4.143 0 7.5-3.357 7.5-7.5s-3.357-7.5-7.5-7.5h-51.393c-4.143 0-7.5 3.357-7.5 7.5s3.357 7.5 7.5 7.5z"/><path d="m203.821 180.511c0 4.143 3.357 7.5 7.5 7.5s7.5-3.357 7.5-7.5v-33.268c0-4.143-3.357-7.5-7.5-7.5h-82.072l3.998-3.592c3.082-2.768 3.336-7.51.567-10.591-2.769-3.082-7.51-3.336-10.591-.567l-18.558 16.671c-1.584 1.422-2.488 3.45-2.488 5.579s.904 4.157 2.488 5.579l18.558 16.67c3.101 2.786 7.841 2.495 10.591-.567 2.769-3.081 2.515-7.823-.567-10.591l-3.997-3.591h74.572v25.768z"/><path d="m407.335 141.665-18.558-16.671c-3.081-2.769-7.824-2.515-10.591.567-2.769 3.081-2.515 7.823.567 10.591l3.998 3.592h-82.071c-4.143 0-7.5 3.357-7.5 7.5v33.268c0 4.143 3.357 7.5 7.5 7.5s7.5-3.357 7.5-7.5v-25.768h74.572l-3.997 3.591c-3.082 2.768-3.336 7.51-.567 10.591 2.756 3.071 7.499 3.345 10.591.567l18.558-16.67c1.584-1.422 2.488-3.45 2.488-5.579s-.906-4.158-2.49-5.579z"/><path d="m378.187 340.545c2.763 3.077 7.505 3.34 10.591.567l18.558-16.671c1.584-1.422 2.488-3.45 2.488-5.579s-.904-4.157-2.488-5.579l-18.558-16.67c-3.081-2.769-7.824-2.513-10.591.567-2.769 3.081-2.515 7.823.567 10.591l3.997 3.591h-74.571v-25.768c0-4.143-3.357-7.5-7.5-7.5s-7.5 3.357-7.5 7.5v33.268c0 4.143 3.357 7.5 7.5 7.5h82.072l-3.998 3.592c-3.082 2.768-3.336 7.51-.567 10.591z"/><path d="m491.049 41.902h-405.07c-4.143 0-7.5 3.357-7.5 7.5s3.357 7.5 7.5 7.5h405.069c3.281 0 5.951 2.67 5.951 5.951v22.544c0 3.281-2.67 5.951-5.951 5.951h-470.097c-3.281 0-5.951-2.67-5.951-5.951v-22.544c0-3.281 2.67-5.951 5.951-5.951h35.041c4.143 0 7.5-3.357 7.5-7.5s-3.357-7.5-7.5-7.5h-35.041c-11.553 0-20.951 9.398-20.951 20.951v22.544c0 11.553 9.398 20.951 20.951 20.951h4.634v234.34l-7.483 7.482c-7.605 7.606-7.607 19.983-.002 27.592l.211.211-8.97 8.968c-12.433 12.43-12.435 32.658-.004 45.092 6.217 6.217 14.382 9.325 22.548 9.325 8.164 0 16.328-3.106 22.544-9.321l8.97-8.968.211.211c7.616 7.618 19.965 7.628 27.591.002l.233-.233 13.11 13.111c2.928 2.928 7.677 2.931 10.606.001 2.93-2.929 2.93-7.678.001-10.606l-13.109-13.112 19.391-19.387 12.613 12.616-3.248 8.976c-1.896 5.236-.577 11.165 3.36 15.103l18.965 18.968c1.304 1.304 1.317 3.431-.002 4.748l-2.658 2.659c-1.31 1.309-3.438 1.306-4.748-.001l-8.519-8.521c-2.93-2.928-7.678-2.928-10.607 0-2.929 2.93-2.929 7.678 0 10.607l8.519 8.52c7.156 7.156 18.801 7.159 25.962.002l2.658-2.659c7.174-7.172 7.177-18.785.003-25.961l-18.703-18.706 2.661-7.352h312.616c14.397 0 26.111-11.714 26.111-26.111v-120.206c0-4.143-3.357-7.5-7.5-7.5s-7.5 3.357-7.5 7.5v120.205c0 6.127-4.984 11.111-11.111 11.111h-313.925c-1.22-1.686-1.077-1.249-14.34-14.604l8.187-8.186 26.735-11.022 2.767 2.767c2.928 2.928 7.677 2.931 10.606.001 2.39-2.389 2.829-5.99 1.319-8.826l33.656-13.876 1.652 1.653c2.928 2.928 7.677 2.931 10.606.001 2.93-2.929 2.93-7.678.001-10.606l-5.189-5.19c-11.517-11.519-104.167-104.186-115.328-115.349-2.93-2.929-7.679-2.93-10.606-.001-2.93 2.929-2.93 7.678-.001 10.606l1.652 1.652-13.882 33.654c-2.836-1.509-6.435-1.071-8.825 1.318-2.93 2.929-2.93 7.678-.001 10.606l2.766 2.766-11.028 26.735-26.542 26.537v-219.342h430.831v127.402c0 4.143 3.357 7.5 7.5 7.5s7.5-3.357 7.5-7.5v-127.402h4.633c11.553 0 20.951-9.398 20.951-20.951v-22.544c0-11.553-9.398-20.951-20.951-20.951zm-428.514 298.206c-.001 0-.001.001 0 0l-11.444 11.441c-1.266 1.267-3.323 1.269-4.592 0l-5.279-5.28 16.036-16.033 5.279 5.28c1.266 1.265 1.269 3.323 0 4.592zm-18.712 79.321c-6.584 6.582-17.295 6.582-23.879-.002-6.582-6.585-6.582-17.297.002-23.879l8.97-8.968 11.938 11.94 11.938 11.94zm30.394-8.755c-11.406-11.408-34.576-34.582-45.509-45.517-1.759-1.76-1.758-4.621 0-6.38l1.904-1.904 5.28 5.281c7.122 7.124 18.674 7.135 25.806.002l11.441-11.439h.001v-.001c7.132-7.13 7.135-18.672.003-25.806l-5.28-5.281 5.626-5.625c6.301 6.302 45.563 45.571 51.888 51.896-17.649 17.645-36.44 36.432-44.783 44.773-1.759 1.763-4.614 1.765-6.377.001zm129.607-80.854-33.329 13.741-74.658-74.671 13.747-33.326c11.038 11.04 83.144 83.158 94.24 94.256zm-48.349 19.933-17.725 7.308c-6.527-6.528-48.863-48.871-55.419-55.428l7.311-17.725z"/></g></g></svg>